Coordinates
version=1
nRows=16
nColumns=40
inDegrees=yes

Units are S.I. units (second, meters, Newtons, ...)
Angles are in degrees.

endheader
time	pelvis_tilt	pelvis_list	pelvis_rotation	pelvis_tx	pelvis_ty	pelvis_tz	hip_flexion_r	hip_adduction_r	hip_rotation_r	knee_angle_r	knee_angle_r_beta	ankle_angle_r	subtalar_angle_r	mtp_angle_r	hip_flexion_l	hip_adduction_l	hip_rotation_l	knee_angle_l	knee_angle_l_beta	ankle_angle_l	subtalar_angle_l	mtp_angle_l	lumbar_extension	lumbar_bending	lumbar_rotation	arm_flex_r	arm_add_r	arm_rot_r	elbow_flex_r	pro_sup_r	wrist_flex_r	wrist_dev_r	arm_flex_l	arm_add_l	arm_rot_l	elbow_flex_l	pro_sup_l	wrist_flex_l	wrist_dev_l
     56.73000000	     -2.62352564	     -5.93937977	     -3.81352974	      0.91082623	      0.92026638	      0.54419961	     14.28647173	      6.62989041	    -11.49901252	     25.25515736	     25.25515736	     15.29232563	     -5.80098459	     -1.22999980	     22.86707826	    -14.84493427	      0.29763869	     67.01733755	     67.01733755	     15.27691699	    -19.42253328	     20.43079990	    -10.82256545	      8.30403156	      0.34370679	     10.20925287	    -17.68348614	     -9.90974858	     33.96155860	     45.91014944	      0.00000000	      0.00000000	     15.18059667	    -10.98220492	     -5.10549861	     48.00073203	     46.28527777	      0.00000000	      0.00000000
     56.75000000	     -2.11785960	     -5.85542353	     -3.29813280	      0.91030122	      0.91842024	      0.54641808	     14.07699701	      6.60134872	    -11.37213253	     26.60401366	     26.60401366	     16.17588444	     -6.86658340	     -1.24304382	     23.78594139	    -14.95438847	      0.26095279	     67.01642335	     67.01642335	     16.09293831	    -19.48922960	     21.54206208	    -11.11477224	      7.92918284	      0.23623956	     12.23437491	    -17.15020174	     -9.70934012	     34.76717639	     45.88593343	      0.00000000	      0.00000000	     13.38209104	    -10.34995547	     -3.93838247	     44.07072340	     46.16598088	      0.00000000	      0.00000000
     56.77000000	     -1.64694106	     -5.81949153	     -2.73117907	      0.90962415	      0.91638521	      0.54865051	     13.89559528	      6.63766518	    -11.31213872	     27.93455473	     27.93455473	     16.99202777	     -7.95704716	     -1.29819549	     24.76155235	    -15.10590350	      0.25856832	     66.81228064	     66.81228064	     16.76515669	    -19.54984429	     22.12179571	    -11.41087790	      7.60286991	     -0.04201136	     14.36250864	    -16.46242940	     -9.58173042	     35.95479620	     45.84755557	      0.00000000	      0.00000000	     11.26622081	     -9.83045216	     -2.99711047	     40.68816984	     46.04780422	      0.00000000	      0.00000000
     56.79000000	     -1.21218395	     -5.70839512	     -2.15955186	      0.90884410	      0.91433289	      0.55067232	     13.71986069	      6.60840058	    -11.23208035	     29.20318661	     29.20318661	     17.83113567	     -9.03806894	     -1.30026352	     25.72621294	    -15.16250071	      0.17904457	     66.32077317	     66.32077317	     17.39182197	    -19.58953893	     22.71241357	    -11.69351089	      7.18998481	     -0.28761280	     16.50434740	    -15.79587134	     -9.40422271	     37.17174746	     45.80475996	      0.00000000	      0.00000000	      9.23148642	     -9.29077860	     -2.04865866	     37.18231410	     45.91954950	      0.00000000	      0.00000000
     56.81000000	     -0.82173198	     -5.69723992	     -1.60782214	      0.90792272	      0.91246091	      0.55254263	     13.48965044	      6.69345247	    -11.23528322	     30.27456497	     30.27456497	     18.82330900	     -9.76741233	     -0.52666034	     26.68511271	    -15.26819647	      0.15370337	     65.52911886	     65.52911886	     18.10411789	    -19.61124334	     23.63835726	    -11.91208805	      6.90857575	      0.37655193	     18.15711529	    -15.78314591	     -8.79947243	     38.42471332	     45.74126902	      0.00000000	      0.00000000	      8.61366580	     -8.49082002	      0.18980816	     31.32980453	     45.68337863	      0.00000000	      0.00000000
     56.83000000	     -0.50739381	     -5.61883720	     -1.02118806	      0.90689598	      0.91073642	      0.55403350	     13.25687228	      6.69961876	    -11.29109831	     31.14407491	     31.14407491	     19.46820910	    -10.60040638	     -0.61694468	     27.59813507	    -15.25353063	      0.07457890	     64.31048718	     64.31048718	     18.45895230	    -19.62662043	     23.73417609	    -12.15099700	      6.57217557	      0.25982565	     20.31361721	    -15.24931137	     -8.76740921	     39.98843764	     45.69318688	      0.00000000	      0.00000000	      6.28890780	     -8.10256290	      0.64768299	     29.48884417	     45.59056848	      0.00000000	      0.00000000
     56.85000000	     -0.33419491	     -5.58546935	     -0.38790597	      0.90572164	      0.90937776	      0.55511606	     12.99828814	      6.76062088	    -11.41419302	     31.62920903	     31.62920903	     19.97866986	    -11.29775764	     -0.50345379	     28.57658491	    -15.13249623	      0.16527424	     62.70885446	     62.70885446	     18.72437604	    -19.63338426	     23.83720132	    -12.23322073	      6.29294086	      0.13722806	     22.42071966	    -14.80300803	     -8.55242314	     41.74302894	     45.62877072	      0.00000000	      0.00000000	      4.10964543	     -7.74534746	      1.26400303	     27.38433756	     45.47346417	      0.00000000	      0.00000000
     56.87000000	     -0.22674440	     -5.50260014	      0.22222624	      0.90440828	      0.90851627	      0.55578898	     12.70026801	      6.74398469	    -11.58167513	     31.88910956	     31.88910956	     20.41160658	    -11.83163842	     -0.40673968	     29.45123344	    -14.84474214	      0.26793931	     60.69043594	     60.69043594	     18.82938983	    -19.62315346	     23.82187317	    -12.29563198	      5.97338842	      0.29777207	     24.46136041	    -14.57472973	     -8.30131350	     43.50766586	     45.56262061	      0.00000000	      0.00000000	      2.08685534	     -7.45015396	      1.75246255	     25.78993836	     45.36854918	      0.00000000	      0.00000000
     56.89000000	     -0.23319558	     -5.37797187	      0.88629620	      0.90298388	      0.90820849	      0.55595229	     12.35619608	      6.67030069	    -11.83079364	     31.79809970	     31.79809970	     20.70263291	    -12.21187168	     -0.24570412	     30.28909001	    -14.34681790	      0.47959692	     58.26563613	     58.26563613	     18.70271043	    -19.60263202	     23.63523480	    -12.25204325	      5.69942430	      0.39261006	     26.47270134	    -14.45071618	     -7.94777272	     45.58843647	     45.48066566	      0.00000000	      0.00000000	      0.05102872	     -7.25602406	      2.22324679	     24.49834632	     45.25830811	      0.00000000	      0.00000000
     56.91000000	     -0.31904104	     -5.21024433	      1.56169279	      0.90153068	      0.90849922	      0.55561215	     11.91620118	      6.51890125	    -12.16468811	     31.37258949	     31.37258949	     20.86452952	    -12.41276536	     -0.05776108	     31.01838531	    -13.62697439	      0.83980168	     55.49563840	     55.49563840	     18.37299400	    -19.56624207	     23.13843009	    -12.14031762	      5.36052887	      0.56871086	     28.40045922	    -14.44194481	     -7.44098457	     48.03114327	     45.37976500	      0.00000000	      0.00000000	     -1.96953699	     -7.17156204	      2.67945761	     23.66687510	     45.14151829	      0.00000000	      0.00000000
     56.93000000	     -0.53802887	     -5.04346060	      2.24869291	      0.89994583	      0.90920084	      0.55481923	     11.51953568	      6.32668017	    -12.59344057	     30.74573742	     30.74573742	     20.92616549	    -12.42895708	      0.05121394	     31.67355233	    -12.81350677	      1.25821048	     52.33038114	     52.33038114	     17.35272748	    -19.49595606	     21.38804610	    -11.97063064	      5.12556857	      1.49783200	     29.08081111	    -15.91149286	     -5.25309832	     53.01539495	     45.22229073	      0.00000000	      0.00000000	     -4.18282240	     -8.09619525	      9.74762836	     24.91727311	     44.03380375	      0.00000000	      0.00000000
     56.95000000	     -0.79664759	     -4.78594824	      2.95742815	      0.89836938	      0.91062469	      0.55357572	     10.95435186	      6.04599214	    -13.05751928	     29.71725314	     29.71725314	     20.81377086	    -12.36561112	      0.23072294	     32.15158561	    -11.71636430	      1.91781381	     48.93429568	     48.93429568	     16.70761227	    -19.38904177	     21.18885646	    -11.73724942	      4.77272471	      1.71582977	     31.24881767	    -16.03331393	     -5.34601788	     54.79327178	     45.17796441	      0.00000000	      0.00000000	     -6.02293173	     -8.18175183	      9.78982782	     24.62049268	     44.00779235	      0.00000000	      0.00000000
     56.97000000	     -1.11626865	     -4.54860503	      3.67745399	      0.89685625	      0.91221664	      0.55201811	     10.33729411	      5.74208933	    -13.68370058	     28.49960046	     28.49960046	     20.52834572	    -12.02226066	     -0.10804069	     32.42492230	    -10.66095370	      2.55485978	     45.18642189	     45.18642189	     14.81237251	    -19.20716063	     17.90814535	    -11.52782271	      4.43532395	      2.00262128	     32.74961017	    -16.68136612	     -4.72105551	     58.71891353	     45.04537066	      0.00000000	      0.00000000	     -8.32879186	     -8.54140119	      9.85346511	     26.35240906	     44.01169430	      0.00000000	      0.00000000
     56.99000000	     -1.47471621	     -4.29126604	      4.37309855	      0.89543461	      0.91412769	      0.55014643	      9.63145272	      5.42753552	    -14.32432236	     27.05177072	     27.05177072	     20.13866842	    -11.58770522	     -0.38774116	     32.51001262	     -9.55427393	      3.28954145	     41.29713754	     41.29713754	     13.11275715	    -18.90098611	     15.48403131	    -11.25285822	      4.11035114	      2.28546449	     34.62387281	    -17.20882408	     -4.33765731	     61.55598720	     44.97078061	      0.00000000	      0.00000000	    -10.15488509	     -8.82808337	     10.25993255	     27.18142206	     43.98946500	      0.00000000	      0.00000000
     57.01000000	     -1.81124423	     -4.05523067	      5.05360886	      0.89411501	      0.91619819	      0.54810195	      8.80280564	      5.18350917	    -14.90642272	     25.43486639	     25.43486639	     19.80243767	    -11.11839940	     -0.17401507	     32.46573390	     -8.47353001	      4.17004890	     37.55790580	     37.55790580	     12.13666855	    -18.26662621	     15.23323255	    -10.98093937	      3.78374055	      2.49848151	     36.80883173	    -17.47738231	     -4.38552806	     63.26585354	     44.93145514	      0.00000000	      0.00000000	    -11.58778006	     -8.99039936	     10.36711060	     27.13332180	     43.96639724	      0.00000000	      0.00000000
     57.03000000	     -2.19667203	     -3.88854844	      5.69251179	      0.89299340	      0.91781199	      0.54596031	      8.03050560	      4.94348516	    -15.75987803	     23.87369006	     23.87369006	     19.38255544	    -10.28213920	     -0.82516201	     32.24105487	     -7.72501192	      4.56369996	     33.64925993	     33.64925993	      9.82815638	    -17.28811960	     11.16423892	    -10.73858429	      3.53646602	      2.83461531	     38.42324897	    -18.28588353	     -3.82261555	     66.75411538	     44.83575520	      0.00000000	      0.00000000	    -13.45419915	     -9.45781718	     10.62286183	     29.17272102	     43.97153621	      0.00000000	      0.00000000
